<svg id="bcf1eb84-d784-462a-b0a8-852463b85eb0" data-name="Layer 1" xmlns="http://www.w3.org/2000/svg" viewBox="0 0 500 105"><defs><style>.b9ddb804-baf5-48ef-ab74-0224e75787b8{fill:#003b49}.ae582177-f85f-4dec-bdaf-a1ddb0780767{fill:#f5841f}</style></defs><path class="b9ddb804-baf5-48ef-ab74-0224e75787b8" d="M161.58.683V48.42h-7.294L127.96 16.1v32.32h-8.8V.683h7.3l26.323 32.325V.683zM90.387 3.172A26.588 26.588 0 0 0 79.574.132l-8.246 8.617a17.974 17.974 0 0 1 5.895-.975 17.23 17.23 0 0 1 8.594 2.148 15.566 15.566 0 0 1 6 6A17.2 17.2 0 0 1 94 24.55a17.2 17.2 0 0 1-2.18 8.627 15.56 15.56 0 0 1-6 6 18.26 18.26 0 0 1-17.186 0 15.515 15.515 0 0 1-6-6 17.2 17.2 0 0 1-2.18-8.627 18.1 18.1 0 0 1 .77-5.233l-9.324 9.74A23.565 23.565 0 0 0 64.06 45.93a27.223 27.223 0 0 0 13.163 3.17 27.242 27.242 0 0 0 13.164-3.17 23.563 23.563 0 0 0 9.2-8.764 24.118 24.118 0 0 0 3.343-12.618 24.114 24.114 0 0 0-3.343-12.615 23.57 23.57 0 0 0-9.2-8.76zM213.822 24.006h8.388V43.03a26.648 26.648 0 0 1-8.59 4.5 33.066 33.066 0 0 1-10.096 1.57 27.226 27.226 0 0 1-13.162-3.17 23.542 23.542 0 0 1-9.2-8.765 24.112 24.112 0 0 1-3.344-12.617 24.115 24.115 0 0 1 3.344-12.615 23.48 23.48 0 0 1 9.238-8.76A27.545 27.545 0 0 1 203.663 0a28.965 28.965 0 0 1 10.91 1.98 21.415 21.415 0 0 1 8.253 5.8l-5.594 5.455a17.935 17.935 0 0 0-13.16-5.456 18.59 18.59 0 0 0-8.972 2.11 15.39 15.39 0 0 0-6.135 5.933 17.047 17.047 0 0 0-2.218 8.727 16.79 16.79 0 0 0 2.218 8.594 15.864 15.864 0 0 0 6.135 6 18 18 0 0 0 8.9 2.18 19.188 19.188 0 0 0 9.818-2.455zM244.818 47.535a22.264 22.264 0 0 1-8.15-4.163l3.07-6.887a24.166 24.166 0 0 0 7.194 3.785 26.123 26.123 0 0 0 8.558 1.468q5.32 0 7.945-1.707a5.16 5.16 0 0 0 2.625-4.5 4.356 4.356 0 0 0-1.465-3.373 10.305 10.305 0 0 0-3.716-2.08q-2.253-.75-6.14-1.7a71.552 71.552 0 0 1-8.832-2.593 14.522 14.522 0 0 1-5.8-4.06 10.916 10.916 0 0 1-2.42-7.467 12.734 12.734 0 0 1 2.148-7.193 14.538 14.538 0 0 1 6.48-5.15A26.273 26.273 0 0 1 256.92 0a34.275 34.275 0 0 1 8.594 1.09 23.76 23.76 0 0 1 7.295 3.14l-2.793 6.886a27.72 27.72 0 0 0-6.546-2.8 24.568 24.568 0 0 0-6.615-.954q-5.252 0-7.808 1.773a5.47 5.47 0 0 0-2.56 4.706 4.257 4.257 0 0 0 1.466 3.342 10.568 10.568 0 0 0 3.72 2.045q2.25.755 6.137 1.707a64.55 64.55 0 0 1 8.727 2.556 14.978 14.978 0 0 1 5.833 4.06 10.7 10.7 0 0 1 2.42 7.364 12.568 12.568 0 0 1-2.148 7.16 14.6 14.6 0 0 1-6.513 5.116 26.54 26.54 0 0 1-10.64 1.91 36.5 36.5 0 0 1-10.672-1.565zM330.505 27.927a12.045 12.045 0 0 1 2.317 7.537 11.035 11.035 0 0 1-4.773 9.58q-4.775 3.374-13.912 3.376H290.4V.683h22.37q8.453 0 13.025 3.307a10.626 10.626 0 0 1 4.57 9.105 11.966 11.966 0 0 1-1.637 6.274 11.2 11.2 0 0 1-4.5 4.225 12.62 12.62 0 0 1 6.277 4.332zM299.27 7.64V20.8h12.55q4.636 0 7.125-1.67a5.506 5.506 0 0 0 2.49-4.88 5.566 5.566 0 0 0-2.49-4.94q-2.49-1.675-7.126-1.672zm24.62 26.936q0-6.89-10.3-6.888h-14.32v13.775h14.322q10.298 0 10.298-6.887zM384.927 40.986v7.434h-35.805V.683h34.848v7.434h-25.982v12.41h23.05v7.3h-23.05v13.16zM432.867 48.42l-9.75-13.98c-.412.044-1.025.066-1.844.066H410.5V48.42h-8.866V.683h19.64a26.44 26.44 0 0 1 10.81 2.045 15.722 15.722 0 0 1 7.06 5.866 16.4 16.4 0 0 1 2.455 9.068 16.2 16.2 0 0 1-2.626 9.277 15.646 15.646 0 0 1-7.537 5.8l10.98 15.683zm-3.205-37.78q-3-2.456-8.8-2.457H410.5V27.21h10.367q5.794 0 8.8-2.488a8.657 8.657 0 0 0 3-7.06 8.555 8.555 0 0 0-3.005-7.023zM490.9 24.006h8.39V43.03a26.663 26.663 0 0 1-8.593 4.5A33.066 33.066 0 0 1 480.6 49.1a27.22 27.22 0 0 1-13.16-3.17 23.538 23.538 0 0 1-9.2-8.765 24.112 24.112 0 0 1-3.345-12.617 24.115 24.115 0 0 1 3.344-12.615 23.48 23.48 0 0 1 9.24-8.763A27.545 27.545 0 0 1 480.743 0a28.96 28.96 0 0 1 10.91 1.98 21.42 21.42 0 0 1 8.254 5.8l-5.595 5.455a17.935 17.935 0 0 0-13.16-5.456 18.59 18.59 0 0 0-8.97 2.114 15.39 15.39 0 0 0-6.135 5.933 17.047 17.047 0 0 0-2.217 8.727 16.79 16.79 0 0 0 2.217 8.594 15.864 15.864 0 0 0 6.135 6 18 18 0 0 0 8.9 2.18 19.185 19.185 0 0 0 9.818-2.455z"/><path class="ae582177-f85f-4dec-bdaf-a1ddb0780767" d="M8.963 36.226v12.212H.093V.683h8.87v24.492L32.567.683h9.96zM27.035 27.7l-5.882 6.228s6.31 7.388 6.694 7.778a23.074 23.074 0 0 0 16.343 7.17h.89z"/><path class="b9ddb804-baf5-48ef-ab74-0224e75787b8" d="M57.575 89.238v9.378H54.2v-25.07h7.4a13.907 13.907 0 0 1 4.137.55 7.992 7.992 0 0 1 2.912 1.567 6.336 6.336 0 0 1 1.723 2.45 8.62 8.62 0 0 1 .568 3.2 8.157 8.157 0 0 1-.61 3.2 6.886 6.886 0 0 1-1.794 2.5 8.328 8.328 0 0 1-2.936 1.64 12.61 12.61 0 0 1-4.005.585zm0-2.693H61.6a7.78 7.78 0 0 0 2.562-.386 5.24 5.24 0 0 0 1.863-1.076 4.472 4.472 0 0 0 1.137-1.653 5.64 5.64 0 0 0 .385-2.116 4.805 4.805 0 0 0-1.478-3.743 6.45 6.45 0 0 0-4.47-1.346h-4.025zM74.735 98.616V80.894h1.785a.982.982 0 0 1 .7.193 1.177 1.177 0 0 1 .262.664l.21 2.765a8.125 8.125 0 0 1 2.248-2.895 5.3 5.3 0 0 1 4.47-.875 4.72 4.72 0 0 1 1.1.464l-.4 2.325a.526.526 0 0 1-.542.438 2.71 2.71 0 0 1-.752-.166 4.744 4.744 0 0 0-1.417-.166 4 4 0 0 0-2.72.946 7.1 7.1 0 0 0-1.83 2.746v11.284zM95.85 80.615a7.906 7.906 0 0 1 2.94.533 6.59 6.59 0 0 1 2.325 1.54 7.023 7.023 0 0 1 1.53 2.483 9.608 9.608 0 0 1 .552 3.37 2.015 2.015 0 0 1-.158.978.65.65 0 0 1-.595.246h-11.79a9.8 9.8 0 0 0 .454 2.92 5.97 5.97 0 0 0 1.154 2.074A4.607 4.607 0 0 0 94.014 96a5.986 5.986 0 0 0 2.273.412 6.676 6.676 0 0 0 2.02-.27 9.743 9.743 0 0 0 1.46-.587 11.628 11.628 0 0 0 1.025-.586 1.35 1.35 0 0 1 .708-.272.685.685 0 0 1 .595.3l.875 1.137a5.935 5.935 0 0 1-1.382 1.216 8.706 8.706 0 0 1-1.723.85 11.034 11.034 0 0 1-1.9.5 11.588 11.588 0 0 1-1.943.166 9.007 9.007 0 0 1-3.384-.62 7.426 7.426 0 0 1-2.677-1.82 8.338 8.338 0 0 1-1.757-2.965 12.06 12.06 0 0 1-.63-4.058 10.352 10.352 0 0 1 .568-3.463 8.174 8.174 0 0 1 1.638-2.792 7.528 7.528 0 0 1 2.606-1.854 8.556 8.556 0 0 1 3.466-.68zm.07 2.29a4.782 4.782 0 0 0-3.552 1.3 6.134 6.134 0 0 0-1.608 3.614h9.64a6.313 6.313 0 0 0-.3-1.987 4.43 4.43 0 0 0-.875-1.557 3.908 3.908 0 0 0-1.408-1.014 4.752 4.752 0 0 0-1.897-.356zM119.256 84.043a1.428 1.428 0 0 1-.28.3.67.67 0 0 1-.4.1 1 1 0 0 1-.568-.218 8.117 8.117 0 0 0-.78-.48 6.448 6.448 0 0 0-1.144-.482 6.073 6.073 0 0 0-3.945.245 4.45 4.45 0 0 0-1.672 1.337 6.063 6.063 0 0 0-1.014 2.118 10.474 10.474 0 0 0-.342 2.78 10.152 10.152 0 0 0 .368 2.86 6.194 6.194 0 0 0 1.032 2.1A4.375 4.375 0 0 0 112.128 96a4.982 4.982 0 0 0 2.142.448 5.468 5.468 0 0 0 1.872-.272 5.752 5.752 0 0 0 1.225-.6 9.482 9.482 0 0 0 .8-.6.97.97 0 0 1 .63-.27.656.656 0 0 1 .594.3l.876 1.136a6.74 6.74 0 0 1-2.886 2.073 10.242 10.242 0 0 1-3.656.656 7.748 7.748 0 0 1-3.088-.61 7.04 7.04 0 0 1-2.475-1.777 8.41 8.41 0 0 1-1.652-2.86 11.477 11.477 0 0 1-.6-3.866 11.647 11.647 0 0 1 .552-3.656 8.27 8.27 0 0 1 1.61-2.9 7.272 7.272 0 0 1 2.614-1.9 8.814 8.814 0 0 1 3.57-.68 8.43 8.43 0 0 1 3.288.6 7.864 7.864 0 0 1 2.536 1.7zM127.67 75.33a1.976 1.976 0 0 1-.184.85 2.442 2.442 0 0 1-.49.7 2.266 2.266 0 0 1-.708.48 2.136 2.136 0 0 1-.857.176 2.08 2.08 0 0 1-.848-.175 2.332 2.332 0 0 1-1.18-1.18 2.06 2.06 0 0 1-.175-.85 2.182 2.182 0 0 1 .175-.864 2.226 2.226 0 0 1 .48-.718 2.282 2.282 0 0 1 .7-.48 2.065 2.065 0 0 1 .85-.176 2.12 2.12 0 0 1 .857.176 2.263 2.263 0 0 1 .707.48 2.37 2.37 0 0 1 .49.718 2.09 2.09 0 0 1 .183.865zm-.7 5.564v17.722h-3.113V80.894zM142.61 83.816a.69.69 0 0 1-.648.385 1.2 1.2 0 0 1-.594-.192 13.675 13.675 0 0 0-.814-.43 7.81 7.81 0 0 0-1.146-.436 5.474 5.474 0 0 0-1.574-.2 4.657 4.657 0 0 0-1.418.2 3.407 3.407 0 0 0-1.075.552 2.438 2.438 0 0 0-.682.813 2.188 2.188 0 0 0-.236 1.006 1.675 1.675 0 0 0 .394 1.136 3.385 3.385 0 0 0 1.04.786 8.954 8.954 0 0 0 1.47.587q.822.254 1.688.542t1.69.638a6.137 6.137 0 0 1 1.468.875 4.008 4.008 0 0 1 1.04 1.286 3.94 3.94 0 0 1 .394 1.828 5.782 5.782 0 0 1-.437 2.266 4.95 4.95 0 0 1-1.3 1.8 6.254 6.254 0 0 1-2.1 1.2 8.648 8.648 0 0 1-2.87.437 8.966 8.966 0 0 1-3.36-.6 8.53 8.53 0 0 1-2.553-1.55l.735-1.188a1.056 1.056 0 0 1 .332-.35.937.937 0 0 1 .507-.122 1.18 1.18 0 0 1 .666.244c.233.163.515.343.848.542a6.593 6.593 0 0 0 1.207.542 5.51 5.51 0 0 0 1.777.244 4.856 4.856 0 0 0 1.592-.236 3.32 3.32 0 0 0 1.136-.638 2.543 2.543 0 0 0 .674-.927 2.9 2.9 0 0 0 .218-1.12 1.864 1.864 0 0 0-.393-1.216 3.346 3.346 0 0 0-1.042-.82 8.487 8.487 0 0 0-1.478-.595q-.83-.254-1.7-.534t-1.7-.638a5.9 5.9 0 0 1-1.48-.9 4.07 4.07 0 0 1-1.04-1.338 4.314 4.314 0 0 1-.393-1.933 4.72 4.72 0 0 1 .42-1.95 4.784 4.784 0 0 1 1.224-1.643 6.032 6.032 0 0 1 1.977-1.13 7.91 7.91 0 0 1 2.677-.418 8.473 8.473 0 0 1 3.14.55 7.455 7.455 0 0 1 2.405 1.512zM151.81 75.33a1.975 1.975 0 0 1-.183.85 2.442 2.442 0 0 1-.49.7 2.29 2.29 0 0 1-.708.48 2.143 2.143 0 0 1-.858.176 2.082 2.082 0 0 1-.85-.175 2.332 2.332 0 0 1-1.18-1.18 2.06 2.06 0 0 1-.175-.85 2.182 2.182 0 0 1 .175-.864 2.226 2.226 0 0 1 .48-.718 2.294 2.294 0 0 1 .7-.48 2.067 2.067 0 0 1 .85-.176 2.127 2.127 0 0 1 .858.176 2.286 2.286 0 0 1 .708.48 2.37 2.37 0 0 1 .49.718 2.09 2.09 0 0 1 .182.865zm-.7 5.564v17.722H148V80.894zM163.776 80.615a9.09 9.09 0 0 1 3.507.647 7.378 7.378 0 0 1 2.66 1.836 8.15 8.15 0 0 1 1.68 2.878 12.45 12.45 0 0 1 0 7.55 8.154 8.154 0 0 1-1.68 2.868 7.284 7.284 0 0 1-2.66 1.827 9.943 9.943 0 0 1-7.014 0 7.36 7.36 0 0 1-2.67-1.826 8.187 8.187 0 0 1-1.7-2.87 12.27 12.27 0 0 1 0-7.548 8.183 8.183 0 0 1 1.7-2.878 7.456 7.456 0 0 1 2.67-1.836 9.086 9.086 0 0 1 3.506-.647zm0 15.814a4.55 4.55 0 0 0 3.924-1.76 8.14 8.14 0 0 0 1.294-4.906 8.218 8.218 0 0 0-1.294-4.934 4.544 4.544 0 0 0-3.92-1.767 5.438 5.438 0 0 0-2.308.455 4.32 4.32 0 0 0-1.635 1.312 5.833 5.833 0 0 0-.98 2.108 12.48 12.48 0 0 0 0 5.642 5.72 5.72 0 0 0 .98 2.09 4.358 4.358 0 0 0 1.635 1.3 5.438 5.438 0 0 0 2.304.46zM176.056 98.616V80.894h1.855a.794.794 0 0 1 .84.648l.25 1.924a9.99 9.99 0 0 1 2.58-2.065 6.71 6.71 0 0 1 3.3-.785 6.41 6.41 0 0 1 2.562.48 4.964 4.964 0 0 1 1.855 1.365 6.048 6.048 0 0 1 1.13 2.126 9.3 9.3 0 0 1 .383 2.746v11.284h-3.114V87.332a4.768 4.768 0 0 0-.918-3.123 3.436 3.436 0 0 0-2.808-1.112 5.237 5.237 0 0 0-2.58.666 8.483 8.483 0 0 0-2.213 1.8v13.052zM220.42 93.437a.7.7 0 0 1 .507.227l1.33 1.453a10.737 10.737 0 0 1-3.736 2.78 12.726 12.726 0 0 1-5.29 1 12.477 12.477 0 0 1-4.916-.934 10.8 10.8 0 0 1-3.76-2.624 11.843 11.843 0 0 1-2.415-4.052 15.11 15.11 0 0 1-.858-5.195 14.206 14.206 0 0 1 .918-5.2 11.882 11.882 0 0 1 2.58-4.058 11.542 11.542 0 0 1 3.98-2.635 13.545 13.545 0 0 1 5.117-.935 11.423 11.423 0 0 1 8.327 3.183l-1.1 1.557a1.21 1.21 0 0 1-.28.29.77.77 0 0 1-.455.112.882.882 0 0 1-.482-.166q-.255-.166-.6-.41t-.822-.525a7.273 7.273 0 0 0-1.12-.525 9.292 9.292 0 0 0-1.5-.41 10.534 10.534 0 0 0-1.977-.167 9.537 9.537 0 0 0-3.683.69 8.256 8.256 0 0 0-2.878 1.97 8.957 8.957 0 0 0-1.88 3.113 11.872 11.872 0 0 0-.675 4.11 12.1 12.1 0 0 0 .674 4.182 9.234 9.234 0 0 0 1.835 3.1 7.72 7.72 0 0 0 2.756 1.933 8.79 8.79 0 0 0 3.43.667 13.83 13.83 0 0 0 2.01-.132 8.193 8.193 0 0 0 1.654-.41 6.924 6.924 0 0 0 1.417-.71 10.99 10.99 0 0 0 1.322-1.022.89.89 0 0 1 .567-.256zM228.922 80.894V92.2a4.692 4.692 0 0 0 .927 3.113 3.45 3.45 0 0 0 2.8 1.1 5.34 5.34 0 0 0 2.57-.648 7.957 7.957 0 0 0 2.222-1.8v-13.07h3.114v17.72H238.7a.794.794 0 0 1-.84-.648l-.244-1.906a9.735 9.735 0 0 1-2.59 2.057 6.8 6.8 0 0 1-3.288.778 6.405 6.405 0 0 1-2.562-.48 5.1 5.1 0 0 1-1.864-1.357 5.736 5.736 0 0 1-1.127-2.117 9.4 9.4 0 0 1-.377-2.745v-11.3zM251.05 98.9a4.27 4.27 0 0 1-3.226-1.172 4.675 4.675 0 0 1-1.128-3.376V83.5h-2.135a.69.69 0 0 1-.47-.166.64.64 0 0 1-.194-.515v-1.243l2.9-.368.717-5.476a.664.664 0 0 1 .228-.43.725.725 0 0 1 .49-.165h1.575v6.104h5.073V83.5h-5.073v10.637a2.26 2.26 0 0 0 .542 1.66 1.89 1.89 0 0 0 1.4.544 2.49 2.49 0 0 0 .85-.13 3.67 3.67 0 0 0 .62-.29q.262-.157.446-.288a.582.582 0 0 1 .323-.13.536.536 0 0 1 .437.3l.91 1.488a5.792 5.792 0 0 1-1.942 1.18 6.586 6.586 0 0 1-2.34.43zM264.1 98.9a4.27 4.27 0 0 1-3.227-1.172 4.675 4.675 0 0 1-1.13-3.376V83.5h-2.134a.69.69 0 0 1-.472-.166.64.64 0 0 1-.193-.515v-1.243l2.9-.368.717-5.476a.664.664 0 0 1 .228-.43.725.725 0 0 1 .49-.165h1.573v6.104h5.074V83.5h-5.074v10.637a2.26 2.26 0 0 0 .547 1.663 1.888 1.888 0 0 0 1.4.543 2.48 2.48 0 0 0 .848-.13 3.647 3.647 0 0 0 .62-.29c.176-.105.324-.2.447-.29a.585.585 0 0 1 .323-.13.537.537 0 0 1 .438.3l.91 1.49a5.792 5.792 0 0 1-1.942 1.18 6.59 6.59 0 0 1-2.344.427zM275.942 75.33a1.975 1.975 0 0 1-.183.85 2.442 2.442 0 0 1-.49.7 2.266 2.266 0 0 1-.71.48 2.136 2.136 0 0 1-.856.176 2.074 2.074 0 0 1-.85-.175 2.34 2.34 0 0 1-1.18-1.18 2.06 2.06 0 0 1-.174-.85 2.18 2.18 0 0 1 .174-.864 2.245 2.245 0 0 1 .482-.718 2.282 2.282 0 0 1 .7-.48 2.058 2.058 0 0 1 .85-.176 2.12 2.12 0 0 1 .856.176 2.263 2.263 0 0 1 .708.48 2.37 2.37 0 0 1 .49.718 2.09 2.09 0 0 1 .182.865zm-.7 5.564v17.722h-3.113V80.894zM280.736 98.616V80.894h1.854a.8.8 0 0 1 .84.648l.245 1.924a9.973 9.973 0 0 1 2.58-2.065 6.71 6.71 0 0 1 3.3-.785 6.412 6.412 0 0 1 2.562.48 4.964 4.964 0 0 1 1.855 1.365 6.03 6.03 0 0 1 1.128 2.126 9.265 9.265 0 0 1 .385 2.746v11.284h-3.114V87.332a4.768 4.768 0 0 0-.918-3.123 3.434 3.434 0 0 0-2.807-1.112 5.232 5.232 0 0 0-2.58.666 8.483 8.483 0 0 0-2.213 1.8v13.052zM306.154 80.6a8.816 8.816 0 0 1 2.16.254 6.8 6.8 0 0 1 1.828.743h4.81v1.155q0 .576-.734.735l-2.012.28a5.378 5.378 0 0 1 .6 2.536 5.457 5.457 0 0 1-.5 2.353 5.356 5.356 0 0 1-1.382 1.81 6.213 6.213 0 0 1-2.1 1.155 8.464 8.464 0 0 1-2.668.4 8.97 8.97 0 0 1-2.344-.3 2.965 2.965 0 0 0-.848.78 1.423 1.423 0 0 0-.29.813 1.105 1.105 0 0 0 .508.985 3.506 3.506 0 0 0 1.346.48 11.27 11.27 0 0 0 1.908.144h2.178a12.1 12.1 0 0 1 2.178.195 6.618 6.618 0 0 1 1.906.637 3.554 3.554 0 0 1 1.347 1.223A3.64 3.64 0 0 1 314.55 99a4.734 4.734 0 0 1-.568 2.23 6.038 6.038 0 0 1-1.635 1.923 8.432 8.432 0 0 1-2.607 1.346 11.163 11.163 0 0 1-3.48.5 13.41 13.41 0 0 1-3.4-.386 7.986 7.986 0 0 1-2.424-1.032 4.52 4.52 0 0 1-1.443-1.5 3.556 3.556 0 0 1-.48-1.778 3.21 3.21 0 0 1 .83-2.232 5.68 5.68 0 0 1 2.283-1.462 3.137 3.137 0 0 1-1.2-.936 2.518 2.518 0 0 1-.446-1.563 2.444 2.444 0 0 1 .14-.793 3.12 3.12 0 0 1 .43-.812 4.59 4.59 0 0 1 .707-.77 4.638 4.638 0 0 1 .98-.645 5.528 5.528 0 0 1-2.056-1.95 5.346 5.346 0 0 1-.74-2.843 5.456 5.456 0 0 1 .5-2.353 5.23 5.23 0 0 1 1.39-1.8A6.375 6.375 0 0 1 303.45 81a8.717 8.717 0 0 1 2.704-.4zm5.528 18.918a1.573 1.573 0 0 0-.368-1.09 2.358 2.358 0 0 0-1-.632 7.08 7.08 0 0 0-1.45-.33 13.5 13.5 0 0 0-1.733-.108h-1.854a6.77 6.77 0 0 1-1.8-.236 5.113 5.113 0 0 0-1.618 1.157 2.34 2.34 0 0 0-.62 1.628 2.146 2.146 0 0 0 .305 1.113 2.61 2.61 0 0 0 .936.894 5.5 5.5 0 0 0 1.583.6 10.13 10.13 0 0 0 2.247.22 9.983 9.983 0 0 0 2.257-.233 5.622 5.622 0 0 0 1.688-.66 3.2 3.2 0 0 0 1.058-1.016 2.41 2.41 0 0 0 .37-1.31zm-5.528-9.56a4.87 4.87 0 0 0 1.67-.262 3.394 3.394 0 0 0 1.216-.734 3.01 3.01 0 0 0 .734-1.128 4.085 4.085 0 0 0 .245-1.443 3.445 3.445 0 0 0-.988-2.59 4.76 4.76 0 0 0-5.74 0 3.45 3.45 0 0 0-.986 2.59 4 4 0 0 0 .252 1.444 3.107 3.107 0 0 0 .744 1.128 3.4 3.4 0 0 0 1.208.734 4.738 4.738 0 0 0 1.644.26zM338.15 77.465a1.366 1.366 0 0 1-.333.395.744.744 0 0 1-.455.13 1.214 1.214 0 0 1-.69-.3 11.186 11.186 0 0 0-1-.655 8.036 8.036 0 0 0-1.454-.656 6.246 6.246 0 0 0-2.055-.3 6.07 6.07 0 0 0-2.01.306 4.285 4.285 0 0 0-1.462.83 3.418 3.418 0 0 0-.882 1.234 3.9 3.9 0 0 0-.3 1.53 2.825 2.825 0 0 0 .516 1.74 4.44 4.44 0 0 0 1.364 1.182 10.376 10.376 0 0 0 1.925.848q1.076.36 2.2.744t2.2.866a7.8 7.8 0 0 1 1.925 1.215 5.567 5.567 0 0 1 1.364 1.8 6 6 0 0 1 .516 2.624 8.486 8.486 0 0 1-.56 3.087 7.13 7.13 0 0 1-1.636 2.51 7.657 7.657 0 0 1-2.64 1.68 9.723 9.723 0 0 1-3.56.612 10.85 10.85 0 0 1-4.435-.885 10.386 10.386 0 0 1-3.42-2.387l.98-1.61a1.28 1.28 0 0 1 .34-.323.806.806 0 0 1 .446-.132 1.4 1.4 0 0 1 .84.394 14.02 14.02 0 0 0 1.18.866 8.906 8.906 0 0 0 1.715.866 6.755 6.755 0 0 0 2.458.393 6.457 6.457 0 0 0 2.152-.333 4.566 4.566 0 0 0 1.6-.936 4.053 4.053 0 0 0 1-1.442 4.834 4.834 0 0 0 .35-1.873 3.14 3.14 0 0 0-.516-1.863 4.274 4.274 0 0 0-1.356-1.217 9.465 9.465 0 0 0-1.915-.83l-2.2-.7a22.192 22.192 0 0 1-2.2-.83 7.143 7.143 0 0 1-1.914-1.226 5.62 5.62 0 0 1-1.356-1.88 7.212 7.212 0 0 1 0-5.362 6.635 6.635 0 0 1 1.5-2.2 7.243 7.243 0 0 1 2.423-1.54 8.848 8.848 0 0 1 3.315-.576 10.58 10.58 0 0 1 3.83.664 8.83 8.83 0 0 1 3.028 1.925zM348.558 103.846a1.625 1.625 0 0 1-.395.56 1.066 1.066 0 0 1-.725.21h-2.31l3.237-7.033-7.312-16.69h2.694a.927.927 0 0 1 .63.2 1.282 1.282 0 0 1 .332.448l4.74 11.16a7.947 7.947 0 0 1 .27.77c.077.258.143.52.2.79.082-.27.163-.532.245-.79s.174-.517.28-.787l4.6-11.142a.992.992 0 0 1 .358-.463.915.915 0 0 1 .55-.184h2.485zM371.42 83.816a.69.69 0 0 1-.646.385 1.2 1.2 0 0 1-.594-.192 13.43 13.43 0 0 0-.815-.43 7.752 7.752 0 0 0-1.145-.436 5.474 5.474 0 0 0-1.574-.2 4.657 4.657 0 0 0-1.418.2 3.407 3.407 0 0 0-1.075.552 2.438 2.438 0 0 0-.683.813 2.188 2.188 0 0 0-.236 1.006 1.675 1.675 0 0 0 .394 1.136 3.385 3.385 0 0 0 1.04.786 8.918 8.918 0 0 0 1.47.587q.822.254 1.688.542t1.69.638a6.156 6.156 0 0 1 1.468.875 4.02 4.02 0 0 1 1.04 1.286 3.94 3.94 0 0 1 .394 1.828 5.782 5.782 0 0 1-.437 2.266 4.95 4.95 0 0 1-1.3 1.8 6.25 6.25 0 0 1-2.1 1.2 8.638 8.638 0 0 1-2.868.437 8.966 8.966 0 0 1-3.36-.6 8.53 8.53 0 0 1-2.552-1.55l.735-1.188a1.056 1.056 0 0 1 .332-.35.935.935 0 0 1 .507-.122 1.18 1.18 0 0 1 .665.244c.232.163.514.343.847.542a6.593 6.593 0 0 0 1.207.542 5.51 5.51 0 0 0 1.776.244 4.856 4.856 0 0 0 1.592-.236 3.328 3.328 0 0 0 1.137-.638 2.543 2.543 0 0 0 .673-.927 2.9 2.9 0 0 0 .218-1.12 1.87 1.87 0 0 0-.392-1.216 3.346 3.346 0 0 0-1.042-.82 8.487 8.487 0 0 0-1.478-.595q-.83-.254-1.7-.534t-1.7-.638a5.9 5.9 0 0 1-1.48-.9 4.086 4.086 0 0 1-1.04-1.338 4.328 4.328 0 0 1-.393-1.933 4.72 4.72 0 0 1 .42-1.95 4.784 4.784 0 0 1 1.224-1.643 6.032 6.032 0 0 1 1.976-1.13 7.91 7.91 0 0 1 2.677-.418 8.473 8.473 0 0 1 3.14.55 7.455 7.455 0 0 1 2.4 1.512zM381.83 98.9a4.273 4.273 0 0 1-3.228-1.172 4.68 4.68 0 0 1-1.128-3.376V83.5h-2.135a.69.69 0 0 1-.473-.166.64.64 0 0 1-.193-.515v-1.243l2.9-.368.718-5.476a.658.658 0 0 1 .227-.43.725.725 0 0 1 .49-.165h1.573v6.104h5.073V83.5h-5.073v10.637a2.257 2.257 0 0 0 .543 1.66 1.886 1.886 0 0 0 1.4.544 2.483 2.483 0 0 0 .85-.13 3.72 3.72 0 0 0 .62-.29q.26-.157.446-.288a.582.582 0 0 1 .323-.13.536.536 0 0 1 .437.3l.91 1.488a5.792 5.792 0 0 1-1.942 1.18 6.585 6.585 0 0 1-2.34.43zM396.523 80.615a7.91 7.91 0 0 1 2.94.533 6.59 6.59 0 0 1 2.326 1.54 7.023 7.023 0 0 1 1.53 2.483 9.608 9.608 0 0 1 .55 3.37 2.027 2.027 0 0 1-.157.978.65.65 0 0 1-.6.246h-11.79a9.763 9.763 0 0 0 .455 2.92 5.97 5.97 0 0 0 1.155 2.074A4.607 4.607 0 0 0 394.687 96a5.986 5.986 0 0 0 2.274.412 6.665 6.665 0 0 0 2.02-.27 9.715 9.715 0 0 0 1.462-.587 11.776 11.776 0 0 0 1.024-.586 1.348 1.348 0 0 1 .708-.272.688.688 0 0 1 .6.3l.875 1.137a5.94 5.94 0 0 1-1.384 1.216 8.706 8.706 0 0 1-1.723.85 11.023 11.023 0 0 1-1.9.5 11.6 11.6 0 0 1-1.943.166 9 9 0 0 1-3.384-.62 7.417 7.417 0 0 1-2.677-1.82 8.323 8.323 0 0 1-1.76-2.965 12.06 12.06 0 0 1-.63-4.058 10.327 10.327 0 0 1 .57-3.463 8.188 8.188 0 0 1 1.635-2.792 7.542 7.542 0 0 1 2.607-1.854 8.555 8.555 0 0 1 3.46-.68zm.07 2.29a4.78 4.78 0 0 0-3.55 1.3 6.135 6.135 0 0 0-1.61 3.614h9.638a6.314 6.314 0 0 0-.3-1.987 4.446 4.446 0 0 0-.874-1.557 3.912 3.912 0 0 0-1.41-1.014 4.747 4.747 0 0 0-1.892-.356zM407.84 98.616V80.894h1.86a.8.8 0 0 1 .84.648l.227 1.82a9.056 9.056 0 0 1 2.2-1.978 5.167 5.167 0 0 1 2.825-.77 4.2 4.2 0 0 1 2.913 1 5.61 5.61 0 0 1 1.6 2.696 5.56 5.56 0 0 1 .97-1.663 5.628 5.628 0 0 1 1.357-1.154 5.75 5.75 0 0 1 1.6-.665 7.2 7.2 0 0 1 1.724-.21 6.54 6.54 0 0 1 2.492.447 4.93 4.93 0 0 1 1.855 1.3 5.814 5.814 0 0 1 1.162 2.108 9.31 9.31 0 0 1 .4 2.86v11.283h-3.113V87.332a4.78 4.78 0 0 0-.91-3.158A3.266 3.266 0 0 0 425.2 83.1a3.973 3.973 0 0 0-1.46.27 3.55 3.55 0 0 0-1.217.8 3.735 3.735 0 0 0-.83 1.32 5.127 5.127 0 0 0-.307 1.847v11.28h-3.113V87.33a4.966 4.966 0 0 0-.857-3.184 3.043 3.043 0 0 0-2.5-1.05 3.963 3.963 0 0 0-2.143.62 7.024 7.024 0 0 0-1.81 1.69v13.208zM446.712 83.816a.693.693 0 0 1-.648.385 1.207 1.207 0 0 1-.594-.192 13.675 13.675 0 0 0-.814-.43 7.84 7.84 0 0 0-1.145-.436 5.486 5.486 0 0 0-1.574-.2 4.645 4.645 0 0 0-1.417.2 3.413 3.413 0 0 0-1.077.552 2.45 2.45 0 0 0-.683.813 2.188 2.188 0 0 0-.236 1.006 1.67 1.67 0 0 0 .395 1.136 3.368 3.368 0 0 0 1.04.786 8.954 8.954 0 0 0 1.468.587q.822.254 1.688.542t1.69.638a6.137 6.137 0 0 1 1.468.875 4.008 4.008 0 0 1 1.04 1.286 3.94 3.94 0 0 1 .394 1.828 5.782 5.782 0 0 1-.437 2.266 4.938 4.938 0 0 1-1.3 1.8 6.254 6.254 0 0 1-2.1 1.2 8.646 8.646 0 0 1-2.868.437 8.958 8.958 0 0 1-3.36-.6 8.523 8.523 0 0 1-2.553-1.55l.734-1.188a1.066 1.066 0 0 1 .332-.35.94.94 0 0 1 .507-.122 1.18 1.18 0 0 1 .665.244c.233.163.516.343.848.542a6.624 6.624 0 0 0 1.207.542 5.514 5.514 0 0 0 1.776.244 4.856 4.856 0 0 0 1.59-.236 3.32 3.32 0 0 0 1.138-.638 2.543 2.543 0 0 0 .674-.927 2.9 2.9 0 0 0 .218-1.12 1.864 1.864 0 0 0-.393-1.216 3.346 3.346 0 0 0-1.042-.82 8.487 8.487 0 0 0-1.478-.595q-.83-.254-1.7-.534t-1.7-.638a5.9 5.9 0 0 1-1.48-.9 4.07 4.07 0 0 1-1.04-1.338 4.314 4.314 0 0 1-.393-1.933 4.72 4.72 0 0 1 .42-1.95 4.784 4.784 0 0 1 1.224-1.643 6.032 6.032 0 0 1 1.977-1.13 7.91 7.91 0 0 1 2.677-.418 8.473 8.473 0 0 1 3.14.55 7.444 7.444 0 0 1 2.405 1.512z"/></svg>