<svg id="a9c38d98-89fc-4782-9e0d-a99f245585f4" data-name="Outline" xmlns="http://www.w3.org/2000/svg" viewBox="0 0 720 80"><defs><style>.a15781af-10ef-491c-b557-87203471fcdb{fill:#fff;}.b11af332-79cf-4e40-b4be-b421d9ec140b{fill:#f5841f;}</style></defs><path class="a15781af-10ef-491c-b557-87203471fcdb" d="M197.258,10.834V69.145h-8.911L156.189,29.66V69.145H145.444V10.834h8.915l32.154,39.485V10.834Z"/><path class="a15781af-10ef-491c-b557-87203471fcdb" d="M110.294,13.874A32.5,32.5,0,0,0,97.086,10.16L87.014,20.687a21.96,21.96,0,0,1,7.2-1.189,21.049,21.049,0,0,1,10.5,2.623,19,19,0,0,1,7.331,7.332,21,21,0,0,1,2.665,10.535,21.008,21.008,0,0,1-2.665,10.538,19,19,0,0,1-7.331,7.332,22.312,22.312,0,0,1-20.992,0,18.954,18.954,0,0,1-7.332-7.332,21.007,21.007,0,0,1-2.664-10.538,22.124,22.124,0,0,1,.94-6.393l-11.383,11.9A28.787,28.787,0,0,0,78.137,66.105a33.245,33.245,0,0,0,16.077,3.874,33.265,33.265,0,0,0,16.08-3.874A28.769,28.769,0,0,0,121.538,55.4a29.461,29.461,0,0,0,4.084-15.412,29.458,29.458,0,0,0-4.084-15.409A28.791,28.791,0,0,0,110.294,13.874Z"/><path class="a15781af-10ef-491c-b557-87203471fcdb" d="M261.071,39.323h10.246v23.24a32.565,32.565,0,0,1-10.494,5.5,40.4,40.4,0,0,1-12.331,1.915,33.245,33.245,0,0,1-16.077-3.874A28.74,28.74,0,0,1,221.172,55.4a29.453,29.453,0,0,1-4.085-15.412,29.45,29.45,0,0,1,4.085-15.409,28.672,28.672,0,0,1,11.287-10.7A33.654,33.654,0,0,1,248.661,10a35.4,35.4,0,0,1,13.328,2.417A26.157,26.157,0,0,1,272.07,19.5l-6.834,6.664A21.9,21.9,0,0,0,249.159,19.5,22.712,22.712,0,0,0,238.2,22.081a18.793,18.793,0,0,0-7.494,7.247A20.819,20.819,0,0,0,228,39.988a20.5,20.5,0,0,0,2.708,10.5,19.374,19.374,0,0,0,7.494,7.332,21.987,21.987,0,0,0,10.874,2.664,23.456,23.456,0,0,0,11.993-3Z"/><path class="a15781af-10ef-491c-b557-87203471fcdb" d="M298.932,68.064a27.2,27.2,0,0,1-9.955-5.085l3.749-8.413a29.49,29.49,0,0,0,8.789,4.624,31.907,31.907,0,0,0,10.454,1.793q6.5,0,9.7-2.085a6.3,6.3,0,0,0,3.207-5.5,5.321,5.321,0,0,0-1.79-4.121,12.577,12.577,0,0,0-4.539-2.542q-2.749-.917-7.5-2.082a87.124,87.124,0,0,1-10.789-3.166,17.734,17.734,0,0,1-7.081-4.959q-2.959-3.37-2.956-9.121a15.554,15.554,0,0,1,2.623-8.786,17.764,17.764,0,0,1,7.915-6.291A32.1,32.1,0,0,1,313.718,10a41.859,41.859,0,0,1,10.5,1.332,29.054,29.054,0,0,1,8.912,3.834l-3.414,8.413a33.875,33.875,0,0,0-8-3.417A29.989,29.989,0,0,0,313.637,19q-6.417,0-9.539,2.166a6.682,6.682,0,0,0-3.125,5.749,5.2,5.2,0,0,0,1.79,4.081,12.911,12.911,0,0,0,4.542,2.5q2.751.919,7.5,2.085a79.072,79.072,0,0,1,10.66,3.121,18.306,18.306,0,0,1,7.125,4.959q2.954,3.331,2.956,9A15.358,15.358,0,0,1,332.92,61.4a17.85,17.85,0,0,1-7.955,6.25,32.431,32.431,0,0,1-13,2.332A44.6,44.6,0,0,1,298.932,68.064Z"/><path class="a15781af-10ef-491c-b557-87203471fcdb" d="M403.6,44.113a14.717,14.717,0,0,1,2.83,9.206,13.479,13.479,0,0,1-5.83,11.7q-5.832,4.124-16.992,4.125H354.617V10.834H381.94q10.327,0,15.911,4.04A12.981,12.981,0,0,1,403.434,26a14.608,14.608,0,0,1-2,7.663,13.672,13.672,0,0,1-5.5,5.163A15.407,15.407,0,0,1,403.6,44.113ZM365.447,19.332V35.408h15.327q5.664,0,8.7-2.04a6.727,6.727,0,0,0,3.04-5.959,6.8,6.8,0,0,0-3.04-6.037q-3.041-2.044-8.7-2.04Zm30.072,32.9q0-8.414-12.579-8.413H365.447V60.647H382.94Q395.519,60.647,395.519,52.234Z"/><path class="a15781af-10ef-491c-b557-87203471fcdb" d="M470.077,60.064v9.081H426.341V10.834h42.566v9.081H437.171V35.073h28.157v8.915H437.171V60.064Z"/><path class="a15781af-10ef-491c-b557-87203471fcdb" d="M528.636,69.145,516.725,52.068a22.523,22.523,0,0,1-2.251.082H501.312V69.145h-10.83V10.834h23.992a32.31,32.31,0,0,1,13.2,2.5A19.2,19.2,0,0,1,536.3,20.5a20.03,20.03,0,0,1,3,11.077,19.783,19.783,0,0,1-3.206,11.331,19.108,19.108,0,0,1-9.206,7.081L540.3,69.145ZM524.721,23q-3.666-3-10.745-3H501.312V43.238h12.664q7.077,0,10.745-3.04t3.664-8.623Q528.385,26,524.721,23Z"/><path class="a15781af-10ef-491c-b557-87203471fcdb" d="M599.526,39.323h10.246v23.24a32.555,32.555,0,0,1-10.494,5.5,40.392,40.392,0,0,1-12.331,1.915,33.245,33.245,0,0,1-16.077-3.874A28.74,28.74,0,0,1,559.627,55.4a29.453,29.453,0,0,1-4.085-15.412,29.45,29.45,0,0,1,4.085-15.409,28.679,28.679,0,0,1,11.287-10.7A33.654,33.654,0,0,1,587.116,10a35.394,35.394,0,0,1,13.328,2.417A26.15,26.15,0,0,1,610.525,19.5l-6.833,6.664A21.908,21.908,0,0,0,587.615,19.5a22.713,22.713,0,0,0-10.956,2.583,18.793,18.793,0,0,0-7.494,7.247,20.819,20.819,0,0,0-2.708,10.66,20.5,20.5,0,0,0,2.708,10.5,19.374,19.374,0,0,0,7.494,7.332,21.987,21.987,0,0,0,10.874,2.664,23.454,23.454,0,0,0,11.993-3Z"/><path class="b11af332-79cf-4e40-b4be-b421d9ec140b" d="M10.834,54.25V69.167H0V10.834H10.834V40.751L39.666,10.834H51.833ZM32.909,43.832,25.724,51.44s7.709,9.024,8.177,9.5A28.187,28.187,0,0,0,53.864,69.7H54.95Z"/><path class="b11af332-79cf-4e40-b4be-b421d9ec140b" d="M675.015,66.126A28.551,28.551,0,0,1,663.851,55.42a29.68,29.68,0,0,1-4.041-15.412A29.465,29.465,0,0,1,663.893,24.6a28.855,28.855,0,0,1,11.2-10.7,32.837,32.837,0,0,1,15.954-3.874,33.286,33.286,0,0,1,13.08,2.5,26.68,26.68,0,0,1,10,7.248l-7,6.582a20.41,20.41,0,0,0-15.579-6.832,21.836,21.836,0,0,0-10.747,2.625,18.9,18.9,0,0,0-7.415,7.29,20.936,20.936,0,0,0-2.666,10.58,20.935,20.935,0,0,0,2.666,10.581,18.893,18.893,0,0,0,7.415,7.289A21.836,21.836,0,0,0,691.552,60.5a20.3,20.3,0,0,0,15.579-6.914l7,6.664A26.621,26.621,0,0,1,704.09,67.5,33.586,33.586,0,0,1,690.969,70,32.834,32.834,0,0,1,675.015,66.126Z"/></svg>